<?xml version="1.0" encoding="utf-8"?>
<!-- Generator: Adobe Illustrator 22.1.0, SVG Export Plug-In . SVG Version: 6.00 Build 0)  -->
<svg version="1.1" id="Layer_1" xmlns="http://www.w3.org/2000/svg" xmlns:xlink="http://www.w3.org/1999/xlink" x="0px" y="0px"
	 viewBox="0 0 336.6 576.5" style="enable-background:new 0 0 336.6 576.5;" xml:space="preserve">
<style type="text/css">
	.st0{fill:none;stroke:#000000;stroke-width:3;}
	.st1{fill:none;stroke:#000000;stroke-width:2.8953;}
	.st2{fill:none;stroke:#000000;stroke-width:2.9691;}
	.st3{fill:#FF0000;stroke:#FF0000;stroke-width:2;}
	.st4{fill:none;stroke:#000000;stroke-width:2;}
	.st5{fill:#FD0000;stroke:#FF0000;stroke-width:3;}
	.st6{fill:#FD0000;stroke:#FF0000;stroke-width:2;}
	.st7{fill:none;stroke:#FF0000;stroke-width:3;}
	.st8{fill:none;stroke:#000000;}
	.st9{fill:#FFFFFF;stroke:#000000;stroke-width:2;}
</style>
<path class="st0" d="M74.4,0C33.2,0,0,35.2,0,78.9v497.6h336.6V78.9c0-43.7-33.2-78.9-74.4-78.9L74.4,0L74.4,0z"/>
<path class="st0" d="M165.6,552.9v22.7"/>
<path class="st0" d="M165,336.6v192.1"/>
<path class="st0" d="M80.5,553.4v22.7"/>
<path class="st0" d="M252.2,553.9v22.7"/>
<path class="st1" d="M15.2,564v11.9"/>
<path class="st1" d="M31.3,563.9v11.9"/>
<path class="st1" d="M47.5,563.8v11.9"/>
<path class="st1" d="M64.2,563.8v11.9"/>
<path class="st1" d="M98.7,564v11.9"/>
<path class="st1" d="M114.7,563.9v11.9"/>
<path class="st1" d="M130.9,563.8v11.9"/>
<path class="st1" d="M147.6,563.8v11.9"/>
<path class="st2" d="M182.9,563.2v11.8"/>
<path class="st2" d="M199.9,563.1v11.8"/>
<path class="st2" d="M217,563.1v11.8"/>
<path class="st2" d="M234.7,563.1v11.8"/>
<path class="st1" d="M269.9,563.6v11.9"/>
<path class="st1" d="M286,563.5v11.9"/>
<path class="st1" d="M302.2,563.4v11.9"/>
<path class="st1" d="M318.9,563.4v11.9"/>
<path class="st0" d="M252.8,371.6v118.1"/>
<path class="st0" d="M81.5,372.7v118.1"/>
<path class="st0" d="M177.5,515.8L165,528.3L152.7,516"/>
<g transform="matrix(.99977 -.021456 .021456 .99977 -6.5081 7.6224)">
	<path class="st0" d="M320.3,166.6c-1,83.6-69.6,150.5-153.1,149.5c-83.6-1-150.5-69.6-149.5-153.1c0,0,0,0,0,0
		c1-83.6,69.6-150.5,153.1-149.5C254.4,14.5,321.3,83,320.3,166.6C320.3,166.6,320.3,166.6,320.3,166.6z"/>
	<path class="st3" d="M67,95l-0.8,68.1"/>
	<g transform="matrix(.9999 .01446 -.01446 .9999 4.4773 -5.0572)">
		<path class="st0" d="M185.9,294.6l-0.3-126.2"/>
		<path class="st0" d="M145.2,293.3l-0.3-125.1"/>
		<path class="st4" d="M225.4,280.6l-0.3-112.1"/>
		<path class="st4" d="M265.1,250.5l-0.2-81.5"/>
		<path class="st4" d="M65.4,242.4l-0.2-73.6"/>
		<path class="st4" d="M105.3,277.5l-0.3-108.1"/>
		<path class="st5" d="M144.7,66.8l0.2,102.2"/>
		<path class="st5" d="M185.3,66.8l0.2,101.8"/>
		<path class="st6" d="M104.6,64l0.2,105.3"/>
		<path class="st6" d="M264.8,91.7l0.2,77"/>
		<path class="st6" d="M224.9,60.6l0.3,108.1"/>
		<path class="st7" d="M185.1,66.6l-21-26.8l-19.4,26.4"/>
	</g>
	<path class="st8" d="M300.3,167.7c-0.9,72.6-60.4,130.8-133,129.9s-130.8-60.4-129.9-133c0,0,0,0,0,0
		c0.9-72.6,60.4-130.8,133-129.9C243,35.5,301.1,95,300.3,167.7C300.3,167.7,300.3,167.7,300.3,167.7z"/>
	<path d="M162.8,18.5l2.7,0l6.5,12.4l0-12.4l1.9,0L174,33.3l-2.7,0l-6.5-12.4l0,12.4l-1.9,0L162.8,18.5 M316.3,168.3l-0.4,9.4
		l-1.7-0.1l0.3-7.4l-4.4-0.2l-0.3,7.1l-1.7-0.1l0.3-7.1l-5.4-0.2l-0.3,7.5l-1.7-0.1l0.4-9.5L316.3,168.3 M160.7,314.7l0-2
		c0.8,0.4,1.5,0.7,2.1,0.9s1.3,0.3,2,0.3c1.1,0,1.9-0.2,2.5-0.6c0.6-0.4,0.9-1,0.9-1.8c0-0.7-0.2-1.2-0.6-1.5
		c-0.4-0.3-1.1-0.6-2.2-0.8l-1.2-0.3c-1.5-0.3-2.6-0.8-3.3-1.6s-1-1.7-1-2.9c0-1.4,0.5-2.5,1.5-3.2c1-0.7,2.4-1.1,4.2-1
		c0.7,0,1.4,0.1,2.2,0.3c0.8,0.2,1.6,0.4,2.4,0.7l0,2.1c-0.8-0.5-1.6-0.8-2.4-1.1c-0.8-0.2-1.5-0.4-2.3-0.4c-1.1,0-2,0.2-2.7,0.6
		c-0.6,0.4-1,1.1-1,1.9c0,0.7,0.2,1.3,0.6,1.7c0.4,0.4,1.2,0.7,2.2,1l1.2,0.3c1.5,0.3,2.6,0.8,3.2,1.5s1,1.5,1,2.7
		c0,1.3-0.5,2.3-1.4,3.1c-0.9,0.7-2.2,1.1-3.8,1.1c-0.7,0-1.4-0.1-2.1-0.2S161.5,315,160.7,314.7 M19.2,172.8l0-2l12.6-2.8
		l-12.5-3.4l0.1-2.3l12.6-2.8l-12.5-3.4l0-2l14.7,4.1l-0.1,2.5l-12.9,2.8l12.8,3.4l-0.1,2.5L19.2,172.8"/>
</g>
<path class="st9" d="M52.2,39.9c0.1,5.8-4.6,10.6-10.5,10.7c-5.8,0.1-10.6-4.6-10.7-10.5c0-0.1,0-0.1,0-0.2
	c-0.1-5.8,4.6-10.6,10.5-10.7c5.8-0.1,10.6,4.6,10.7,10.5C52.2,39.8,52.2,39.9,52.2,39.9z"/>
</svg>
