<?xml version="1.0" encoding="utf-8"?>
<!-- Generator: Adobe Illustrator 22.1.0, SVG Export Plug-In . SVG Version: 6.00 Build 0)  -->
<svg version="1.1" id="Layer_1" xmlns="http://www.w3.org/2000/svg" xmlns:xlink="http://www.w3.org/1999/xlink" x="0px" y="0px"
	 viewBox="0 0 127 227" style="enable-background:new 0 0 127 227;" xml:space="preserve">
<style type="text/css">
	.st0{fill:#FF0000;}
	.st1{fill:#FFFFFF;}
</style>
<g transform="matrix(.78562 -.6187 .6187 .78562 -113.09 285.51)">
	<path d="M239.1-38.7c4-2.4,9.2-1.1,11.6,2.9s1.1,9.2-2.9,11.6c0,0-0.1,0-0.1,0.1c-4,2.4-9.2,1.1-11.6-2.9S235-36.3,239.1-38.7
		C239.1-38.7,239.1-38.7,239.1-38.7z"/>
	<path d="M268.8-145.1l-0.9,0.7l-7.6,5.7l-0.3,0.2l-0.1,0.4l-20.7,87.3c-7.3,1.5-13.4,7-15.2,14.7c-1.5,6.3,0.3,12.7,4.2,17.3
		c0,0.1,0.1,0.1,0.2,0.3c0.2,0.2,0.3,0.4,0.5,0.6c0.4,0.4,0.8,0.8,1.2,1.1c0.5,0.4,0.9,0.8,1.4,1.2c0.2,0.2,0.5,0.3,0.7,0.5
		l-20.5,86.7l-0.1,0.4l0.2,0.4l5.4,8.8L218,82l0.9-0.6l7.6-5.7l0.3-0.2l0.1-0.4l20.7-87.3c7.3-1.5,13.4-7,15.2-14.7
		c1.6-6.9-0.6-13.8-5.3-18.5c-0.3-0.3-0.7-0.7-1.1-1c-0.4-0.3-0.7-0.6-1.2-0.9c-0.2-0.2-0.5-0.3-0.7-0.5l20.5-86.7l0.1-0.4l-0.2-0.4
		l-5.5-8.8L268.8-145.1L268.8-145.1z M268.3-142.2l4.7,7.6l-20.6,86.9l-0.2,0.7l0.6,0.4c0.4,0.2,0.8,0.5,1.1,0.8
		c0.4,0.3,0.7,0.5,1,0.9c0.3,0.3,0.7,0.6,1,0.9c4.2,4.2,6.2,10.4,4.8,16.7c-1.7,7.1-7.5,12.3-14.3,13.4l-0.6,0.1l-0.2,0.6L225,74.2
		l-6.5,4.9l-4.6-7.5l20.6-86.9l0.2-0.7l-0.6-0.4c-0.4-0.2-0.8-0.5-1.1-0.8c-0.4-0.3-0.9-0.7-1.3-1.1c-0.4-0.3-0.7-0.7-1-1
		c-0.2-0.2-0.3-0.3-0.5-0.5l-0.2-0.3c-3.5-4.2-5.1-9.8-3.7-15.5c1.7-7.1,7.5-12.3,14.3-13.4l0.6-0.1l0.2-0.6l20.7-87.4L268.3-142.2
		L268.3-142.2z"/>
	<path class="st0" d="M268.1-141.5c-0.2,0-1.6,0.9-3.2,2l-2.9,2.1l-10.4,44l-10.4,44l-2.9,1c-3.7,1.2-6.6,3.2-8.8,6
		c-1.5,1.9-1.9,2.8-2.8,6.8c-0.1,0.4-0.1,0.6-0.2,0.9l8.5,2c0.1-1.1,0.5-2.2,1.1-3.3c4.2-7.3,15.6-4.4,15.8,4c0,1.1-0.2,2.2-0.5,3.2
		l9,2.1c0.8-2.6,0.9-5.4,0.3-8.2c-1-4.7-4.4-9.7-7.6-11.4l-1.1-0.6l10.4-43.9l10.4-43.9l-2.1-3.4
		C269.4-139.9,268.3-141.4,268.1-141.5L268.1-141.5z"/>
	<path class="st1" d="M218.5,78.4c0.2,0,1.6-0.9,3.2-2l2.9-2.1l10.5-44l10.5-44l2.9-1c3.7-1.2,6.6-3.2,8.9-6
		c1.5-1.9,1.9-2.8,2.8-6.8c0.1-0.4,0.1-0.6,0.2-0.9l-8.5-2c-0.1,1.1-0.5,2.2-1.1,3.3c-4.2,7.3-15.6,4.4-15.7-4
		c0-1.1,0.2-2.2,0.5-3.2l-9-2.1c-0.8,2.6-0.9,5.4-0.3,8.2c1,4.7,4.3,9.7,7.6,11.4l1.1,0.6l-10.5,43.9L214,71.5l2,3.4
		C217.2,76.8,218.3,78.3,218.5,78.4L218.5,78.4z"/>
</g>
</svg>
